<?xml version="1.0" standalone="no"?>
<!DOCTYPE svg PUBLIC "-//W3C//DTD SVG 20010904//EN"
 "http://www.w3.org/TR/2001/REC-SVG-20010904/DTD/svg10.dtd">
<svg version="1.0" xmlns="http://www.w3.org/2000/svg"
 width="1024.000000pt" height="1024.000000pt" viewBox="0 0 1024.000000 1024.000000"
 preserveAspectRatio="xMidYMid meet">

<g transform="translate(0.000000,1024.000000) scale(0.100000,-0.100000)"
fill="#000000" stroke="none">
<path d="M4905 9739 c-578 -23 -1214 -188 -1750 -456 -1093 -547 -1948 -1602
-2259 -2786 -102 -387 -145 -730 -146 -1147 -1 -1025 345 -1976 1014 -2785
124 -151 435 -461 586 -587 811 -671 1778 -1018 2836 -1018 936 0 1803 292
2594 873 350 257 720 634 979 996 371 518 619 1107 740 1759 48 256 64 441 65
752 1 444 -43 777 -154 1183 -305 1113 -1042 2065 -2041 2638 -518 298 -1111
492 -1704 559 -167 19 -528 28 -760 19z m700 -354 c295 -35 567 -95 834 -184
1155 -386 2055 -1230 2501 -2346 137 -341 229 -716 271 -1095 16 -150 17 -651
1 -800 -17 -159 -57 -390 -92 -538 -37 -153 -142 -469 -205 -616 -227 -530
-596 -1054 -1000 -1419 -835 -754 -1857 -1129 -2938 -1077 -488 23 -893 112
-1332 290 -292 119 -534 249 -785 423 -840 581 -1429 1427 -1665 2392 -78 317
-108 588 -108 960 0 281 7 377 49 634 67 421 176 767 354 1126 423 853 1121
1528 1980 1916 389 175 861 300 1280 339 63 5 133 12 155 14 90 9 577 -4 700
-19z"/>
<path d="M5218 7978 c-8 -7 -57 -69 -108 -138 -265 -356 -497 -593 -805 -824
-222 -167 -407 -280 -645 -395 -334 -161 -626 -225 -920 -202 -73 6 -136 8
-141 5 -41 -25 63 -74 223 -105 97 -19 133 -21 258 -15 90 4 189 15 260 30 84
17 119 20 129 13 21 -17 59 -112 92 -227 23 -77 31 -129 32 -195 2 -81 -1 -96
-27 -149 -56 -115 -226 -263 -382 -332 -99 -44 -222 -83 -332 -104 -115 -22
-122 -25 -122 -45 0 -29 41 -38 154 -32 222 11 404 81 621 239 44 32 86 57 95
55 23 -4 15 -176 -20 -402 -41 -261 -39 -301 11 -293 20 2 35 26 86 126 72
144 124 298 158 468 54 266 43 470 -44 834 -29 121 -35 152 -32 177 0 6 43 35
94 64 318 179 555 356 787 589 206 205 388 444 539 708 30 50 55 92 56 92 1 0
51 -55 111 -122 390 -441 819 -807 1272 -1085 79 -48 148 -95 153 -105 6 -12
-6 -77 -41 -213 -71 -282 -94 -456 -86 -665 9 -255 47 -412 151 -625 62 -127
103 -182 128 -172 22 8 22 27 -9 203 -26 156 -42 384 -30 448 4 20 14 40 21
43 8 3 54 -22 102 -55 115 -78 230 -135 358 -178 167 -56 332 -69 365 -29 18
22 6 31 -72 55 -298 88 -488 190 -629 336 -149 156 -162 276 -60 563 48 135
67 171 89 171 9 0 69 -16 132 -35 290 -90 530 -106 727 -50 100 29 80 60 -45
70 -349 27 -646 111 -983 280 -304 153 -696 416 -1019 685 -127 106 -433 381
-460 415 -27 33 -150 135 -163 135 -7 0 -20 -6 -29 -12z"/>
<path d="M7005 7151 c-83 -37 -128 -134 -105 -222 48 -179 274 -200 351 -34
46 100 0 216 -103 260 -49 20 -94 19 -143 -4z"/>
<path d="M3349 7017 c-141 -75 -140 -285 3 -358 52 -26 124 -25 179 4 81 43
123 135 105 232 -8 43 -68 113 -113 132 -50 21 -123 16 -174 -10z"/>
<path d="M5121 6329 c-92 -123 -249 -276 -322 -312 -96 -48 -147 -33 -374 109
-193 122 -203 127 -221 120 -31 -12 -9 -45 110 -160 149 -146 169 -182 168
-301 0 -44 -9 -134 -21 -201 -25 -143 -27 -194 -7 -194 21 0 31 18 60 106 92
281 251 218 383 -151 38 -106 61 -147 81 -143 21 4 21 24 -2 143 -26 142 -31
304 -13 410 29 162 78 284 218 536 65 117 71 139 37 139 -17 0 -42 -26 -97
-101z"/>
<path d="M4665 6392 c-69 -43 -90 -120 -53 -192 30 -58 75 -83 141 -77 118 10
166 153 83 244 -28 31 -40 37 -87 40 -41 3 -61 0 -84 -15z"/>
<path d="M6272 6273 c-107 -138 -255 -289 -312 -319 -23 -12 -56 -18 -95 -18
-71 -1 -111 19 -255 124 -159 117 -213 151 -229 148 -35 -7 -14 -48 76 -148
59 -65 105 -126 125 -168 l33 -67 -4 -165 c-7 -342 -8 -324 11 -328 13 -2 20
8 28 40 40 158 80 237 130 253 26 8 71 -17 109 -60 37 -43 93 -153 147 -289
37 -94 55 -119 74 -100 5 5 2 58 -7 119 -31 235 -6 416 93 658 39 97 73 163
195 385 21 37 22 44 9 52 -8 5 -18 10 -22 10 -3 0 -51 -57 -106 -127z"/>
<path d="M5820 6357 c-39 -14 -76 -63 -86 -112 -8 -42 24 -117 60 -140 119
-78 264 57 198 184 -32 64 -103 92 -172 68z"/>
<path d="M4995 4899 c-607 -21 -1267 -140 -1915 -345 -280 -89 -683 -245 -669
-259 3 -2 72 16 154 41 551 166 1211 291 1835 348 714 66 1538 35 2250 -84
409 -69 812 -167 1168 -285 6 -3 12 -2 12 0 0 20 -503 228 -730 301 -426 139
-791 218 -1190 259 -243 24 -619 35 -915 24z"/>
<path d="M4773 4200 c-70 -42 -94 -157 -50 -234 27 -48 78 -76 137 -76 153 0
210 229 78 310 -44 26 -122 27 -165 0z m141 -71 c41 -48 29 -154 -19 -173 -51
-19 -98 0 -114 45 -28 81 8 159 74 159 25 0 40 -8 59 -31z"/>
<path d="M5060 4060 l0 -161 31 3 32 3 -2 110 -2 110 68 -112 c64 -107 69
-113 100 -113 l33 0 0 160 0 160 -30 0 -29 0 -3 -102 -3 -101 -60 99 c-57 95
-62 99 -97 102 l-38 3 0 -161z"/>
<path d="M5428 4195 c-46 -31 -73 -96 -65 -161 8 -79 65 -134 144 -141 88 -8
153 52 153 140 l0 37 -75 0 c-73 0 -75 -1 -75 -25 0 -23 4 -25 41 -25 37 0 40
-2 34 -22 -16 -52 -76 -64 -122 -24 -24 21 -28 31 -28 79 0 45 5 60 24 81 30
32 76 34 106 6 16 -15 29 -19 53 -14 l32 6 -18 30 c-36 62 -137 79 -204 33z"/>
<path d="M6180 3753 c-30 -11 -50 -37 -50 -63 0 -19 -6 -29 -20 -33 -12 -3
-20 -14 -20 -25 0 -12 9 -23 20 -27 18 -6 20 -15 20 -96 l0 -90 26 3 c26 3 26
4 28 93 1 85 2 90 24 93 16 3 22 10 22 28 0 19 -5 24 -26 24 -20 0 -25 4 -20
16 3 9 6 18 6 20 0 2 9 4 20 4 25 0 28 45 4 54 -9 3 -16 6 -17 5 -1 0 -9 -3
-17 -6z"/>
<path d="M2810 3690 c0 -57 1 -60 25 -60 24 0 25 3 25 60 0 57 -1 60 -25 60
-24 0 -25 -3 -25 -60z"/>
<path d="M2885 3728 c3 -13 27 -81 52 -153 24 -71 47 -136 49 -143 2 -9 17
-12 44 -10 41 3 41 3 66 73 48 134 84 239 84 247 0 17 -59 8 -70 -11 -8 -16
-43 -121 -75 -226 -3 -12 -2 -14 -52 130 -37 109 -38 110 -71 113 -31 3 -33 2
-27 -20z"/>
<path d="M3470 3585 l0 -165 30 0 30 0 0 165 0 165 -30 0 -30 0 0 -165z"/>
<path d="M5630 3585 l0 -165 30 0 30 0 0 165 0 165 -30 0 -30 0 0 -165z"/>
<path d="M6896 3735 c-10 -26 5 -45 35 -45 26 0 29 4 29 30 0 26 -3 30 -29 30
-16 0 -31 -6 -35 -15z"/>
<path d="M7000 3585 l0 -165 35 0 35 0 0 165 0 165 -35 0 -35 0 0 -165z"/>
<path d="M7114 3736 c-11 -28 4 -48 33 -44 22 2 28 8 28 28 0 20 -6 26 -28 28
-18 2 -29 -2 -33 -12z"/>
<path d="M7480 3691 c0 -59 1 -61 25 -61 25 0 26 2 23 58 -3 50 -6 57 -25 60
-22 3 -23 0 -23 -57z"/>
<path d="M2722 3688 c3 -49 5 -53 31 -56 27 -3 27 -2 27 52 0 56 0 56 -31 56
l-31 0 4 -52z"/>
<path d="M7560 3685 c0 -52 1 -55 25 -55 24 0 25 3 25 55 0 52 -1 55 -25 55
-24 0 -25 -3 -25 -55z"/>
<path d="M3227 3639 c-57 -44 -57 -154 0 -198 29 -23 92 -28 111 -9 9 9 15 9
24 0 7 -7 22 -12 35 -12 23 0 23 1 23 120 0 119 0 120 -23 120 -13 0 -28 -5
-35 -12 -9 -9 -15 -9 -24 0 -19 19 -82 14 -111 -9z m96 -38 c29 -11 44 -59 27
-90 -32 -61 -100 -41 -100 29 0 29 6 43 22 54 27 19 21 18 51 7z"/>
<path d="M3609 3632 c-67 -60 -42 -181 43 -209 98 -32 182 59 148 161 -17 52
-53 76 -111 76 -39 0 -55 -5 -80 -28z m116 -42 c25 -27 23 -76 -3 -102 -18
-19 -24 -20 -51 -8 -67 27 -48 125 25 129 6 1 19 -8 29 -19z"/>
<path d="M3840 3539 l0 -120 33 3 32 3 5 78 c5 82 14 97 58 97 18 0 22 6 22
30 0 25 -4 30 -25 30 -13 0 -33 -10 -45 -22 l-20 -22 0 22 c0 18 -6 22 -30 22
l-30 0 0 -121z"/>
<path d="M4039 3629 c-51 -55 -51 -129 1 -180 24 -24 37 -29 77 -29 42 0 54 5
78 30 16 16 25 33 21 37 -13 13 -39 12 -62 -3 -28 -19 -63 -15 -78 8 -5 9 -8
19 -6 22 3 2 39 6 80 9 41 3 76 6 76 6 1 1 -2 20 -6 43 -11 58 -47 88 -107 88
-37 0 -50 -5 -74 -31z m109 -31 c24 -24 13 -38 -31 -38 -53 0 -62 8 -40 32 18
21 53 24 71 6z"/>
<path d="M4275 3635 c-14 -13 -25 -33 -25 -45 0 -28 44 -70 73 -70 27 0 52
-23 42 -40 -10 -16 -53 -12 -64 7 -8 14 -13 15 -35 5 -26 -11 -26 -13 -10 -37
30 -45 111 -53 153 -14 46 43 15 109 -61 130 -39 10 -51 35 -23 45 16 6 29 2
56 -18 9 -6 24 -8 33 -5 14 6 15 10 5 29 -17 32 -28 38 -77 38 -32 0 -49 -6
-67 -25z"/>
<path d="M4560 3500 l0 -160 30 0 c29 0 30 1 30 50 0 47 11 63 25 40 8 -13 71
-13 96 0 57 31 67 162 15 207 -32 28 -91 31 -118 6 -17 -15 -18 -15 -18 0 0
12 -9 17 -30 17 l-30 0 0 -160z m148 94 c29 -20 30 -76 2 -104 -25 -25 -41
-25 -68 0 -31 29 -29 73 4 99 32 25 33 25 62 5z"/>
<path d="M4864 3642 c-33 -26 -44 -55 -44 -112 0 -44 5 -56 29 -81 34 -34 93
-40 123 -12 17 15 18 15 18 0 0 -12 9 -17 30 -17 l30 0 0 120 0 120 -30 0
c-20 0 -30 -5 -30 -15 0 -8 -4 -15 -9 -15 -5 0 -11 7 -15 15 -8 21 -75 19
-102 -3z m113 -61 c31 -41 2 -101 -48 -101 -49 0 -67 72 -28 111 22 22 55 18
76 -10z"/>
<path d="M5100 3541 l0 -121 30 0 30 0 0 73 c0 80 15 107 58 107 18 0 22 6 22
30 0 25 -4 30 -24 30 -14 0 -31 -7 -40 -15 -18 -18 -27 -19 -23 -2 1 7 -10 13
-25 15 l-28 3 0 -120z"/>
<path d="M5301 3644 c-26 -19 -51 -71 -51 -109 0 -30 26 -85 49 -102 20 -16
76 -16 104 -2 16 9 22 9 25 0 2 -6 15 -11 28 -11 l24 0 0 120 0 120 -25 0
c-17 0 -25 -6 -25 -17 0 -15 -1 -15 -18 0 -24 22 -81 22 -111 1z m99 -54 c26
-26 26 -81 0 -105 -17 -15 -24 -16 -45 -7 -23 11 -45 47 -45 73 0 13 46 59 60
59 5 0 19 -9 30 -20z"/>
<path d="M5784 3649 c-69 -34 -72 -163 -6 -216 20 -16 84 -17 100 -1 9 9 15 9
24 0 7 -7 22 -12 35 -12 23 0 23 1 23 120 l0 120 -24 0 c-13 0 -26 -5 -28 -11
-3 -9 -9 -9 -25 0 -26 13 -70 13 -99 0z m96 -59 c27 -27 25 -63 -4 -97 l-24
-28 -29 21 c-55 41 -37 118 30 123 4 1 16 -8 27 -19z"/>
<path d="M6297 3649 c-22 -13 -57 -81 -57 -113 0 -90 90 -148 158 -100 20 14
22 14 22 0 0 -11 10 -16 30 -16 l30 0 0 120 0 120 -30 0 c-20 0 -30 -5 -30
-15 0 -8 -4 -15 -9 -15 -5 0 -11 7 -15 15 -6 17 -71 20 -99 4z m97 -54 c22
-22 28 -49 17 -78 -14 -36 -41 -49 -72 -34 -35 18 -40 88 -7 111 28 20 42 20
62 1z"/>
<path d="M6520 3540 l0 -120 30 0 30 0 0 71 c0 81 11 109 44 109 31 0 36 -16
36 -106 l0 -75 28 3 c27 3 27 4 32 88 l5 85 30 0 30 0 3 -87 3 -88 29 0 30 0
0 98 c0 117 -12 142 -67 142 -20 0 -45 -7 -55 -17 -17 -15 -19 -15 -36 0 -10
10 -31 17 -47 17 -16 0 -37 -7 -47 -17 -17 -15 -18 -15 -18 0 0 12 -9 17 -30
17 l-30 0 0 -120z"/>
<path d="M6900 3540 l0 -120 30 0 30 0 0 120 0 120 -30 0 -30 0 0 -120z"/>
<path d="M7120 3539 l0 -120 26 3 c25 3 25 4 28 108 2 58 1 111 -2 118 -2 6
-15 12 -28 12 -24 0 -24 0 -24 -121z"/>
<path d="M7249 3632 c-61 -55 -47 -177 23 -207 33 -13 90 -5 96 15 6 16 22 12
22 -6 0 -11 8 -14 28 -12 l27 3 0 115 0 115 -30 0 c-19 0 -29 -5 -27 -12 3
-18 -17 -16 -24 2 -11 27 -79 19 -115 -13z m119 -45 c6 -5 12 -26 12 -47 0
-38 -9 -51 -43 -63 -23 -8 -67 33 -67 63 0 12 11 32 24 45 25 25 44 25 74 2z"/>
<path d="M4210 3035 l0 -155 30 0 c30 0 30 1 30 55 0 50 2 55 23 55 16 0 30
-14 52 -53 26 -44 36 -53 63 -55 41 -4 41 8 1 70 l-31 48 26 25 c20 18 26 34
26 65 0 23 -4 50 -10 60 -14 26 -63 40 -141 40 l-69 0 0 -155z m154 73 c18
-29 -4 -53 -53 -56 l-41 -3 0 41 0 41 41 -3 c27 -2 46 -9 53 -20z"/>
<path d="M4486 3038 l3 -153 25 -3 25 -3 3 113 3 113 35 -107 c32 -99 37 -108
60 -108 24 0 28 8 60 107 l35 108 3 -113 3 -112 29 0 30 0 0 155 0 155 -39 0
c-21 0 -43 -6 -48 -12 -6 -7 -24 -52 -40 -101 l-30 -87 -35 97 -34 98 -46 3
-45 3 3 -153z"/>
<path d="M4960 3036 l0 -156 30 0 29 0 3 103 3 102 58 -102 c53 -94 61 -103
88 -103 l29 0 0 155 0 155 -31 0 -30 0 1 -87 c1 -49 1 -92 1 -98 -1 -5 -25 33
-55 85 -51 90 -56 95 -90 98 l-36 3 0 -155z"/>
<path d="M5260 3170 c-29 -29 -27 -84 5 -115 13 -14 31 -25 39 -25 31 0 65 24
76 53 15 44 13 55 -15 82 -30 31 -77 33 -105 5z m75 -60 c0 -41 -27 -53 -45
-20 -16 30 -3 62 23 58 18 -2 22 -10 22 -38z"/>
<path d="M5523 3155 c-33 -33 -40 -61 -15 -59 7 1 21 2 32 3 11 0 20 7 20 15
0 32 55 28 65 -5 9 -26 -9 -56 -77 -125 -86 -88 -81 -98 50 -102 l102 -3 0 25
c0 28 -16 36 -78 37 -46 0 -47 0 -24 16 13 9 39 37 58 61 44 58 46 102 5 143
-43 42 -92 40 -138 -6z"/>
<path d="M5720 3160 l0 -30 65 0 c36 0 65 -2 65 -5 0 -3 -11 -23 -25 -45 -28
-44 -76 -180 -69 -192 3 -4 17 -8 32 -8 24 0 29 5 39 48 6 26 29 86 52 135 60
129 61 127 -59 127 l-100 0 0 -30z"/>
<path d="M5980 3163 c-23 -20 -31 -35 -27 -46 9 -23 36 -21 62 3 23 22 49 19
59 -6 9 -24 -5 -45 -35 -51 -22 -4 -29 -11 -29 -29 0 -18 5 -24 23 -24 35 0
58 -21 51 -48 -9 -33 -53 -41 -75 -14 -20 26 -57 29 -66 5 -4 -11 4 -26 27
-46 29 -26 38 -29 83 -24 37 3 56 11 69 27 22 27 24 93 3 113 -13 13 -13 19 1
46 30 59 0 111 -68 118 -40 5 -49 2 -78 -24z"/>
</g>
</svg>
